<svg id="Capa_1" enable-background="new 0 0 511.998 511.998" height="512" viewBox="0 0 511.998 511.998" width="512" xmlns="http://www.w3.org/2000/svg"><g><g><path d="m479.047 511.997h-446.101c-11.845 0-21.447-9.602-21.447-21.447v-469.101c0-11.845 9.602-21.447 21.447-21.447h446.101c11.845 0 21.447 9.602 21.447 21.447v469.101c0 11.845-9.602 21.447-21.447 21.447z" fill="#978ecb"/><path d="m500.5 21.453v469.092c0 11.847-9.606 21.453-21.453 21.453h-27.144c11.847 0 21.443-9.606 21.443-21.453v-469.092c-.001-11.847-9.596-21.453-21.443-21.453h27.144c11.847 0 21.453 9.606 21.453 21.453z" fill="#8379c1"/><path d="m434.288 465.133h-356.583c-11.845 0-21.447-9.602-21.447-21.447v-375.373c0-11.845 9.602-21.447 21.447-21.447h356.583c11.845 0 21.447 9.602 21.447 21.447v375.373c.001 11.844-9.602 21.447-21.447 21.447z" fill="#463b84"/><path d="m455.736 68.313v375.374c0 11.851-9.607 21.448-21.448 21.448h-27.152c11.841 0 21.448-9.596 21.448-21.448v-375.374c0-11.851-9.607-21.448-21.448-21.448h27.152c11.841 0 21.448 9.597 21.448 21.448z" fill="#373072"/></g><g><g><path d="m401.94 302.203c4.483 0 8.783-1.778 11.957-4.945 6.876-6.86 5.28-18.835 4.311-27.624-1.025-9.29-5.227-18.601-10.644-26.123-11.222-15.582-29.595-25.057-48.807-25.057-42.934 0-68.847 47.777-63.228 86.606 2.4 16.586 10.613 32.8 22.868 44.275 22.923 21.461 68.277 23.89 91.973 3.498 5.774-4.969 8.017-13.071 5.001-20.067-3.97-9.209-14.903-12.581-23.222-8.315-19.163 9.825-44.227 10.05-53.584-9.849-1.12-2.381-1.864-4.921-2.361-7.504l-.663-3.452c-.157-.815.469-1.57 1.299-1.569l65.067.126zm-67.292-28.946c4.034-12.309 13.322-20.944 24.108-20.944 10.838 0 20.163 8.695 24.166 21.067z" fill="#978ecb"/></g><path d="m418.213 269.633c-1.033-9.286-5.237-18.602-10.649-26.122-11.217-15.586-29.592-25.058-48.804-25.058-5.278 0-10.298.723-15.039 2.066 17.497 1.632 33.785 10.887 44.125 25.233 5.505 7.654 9.781 17.125 10.825 26.576.992 8.945 2.613 21.133-4.379 28.105-.64.641-1.332 1.229-2.055 1.745l9.668.021h.041c4.483 0 8.779-1.777 11.95-4.937 6.878-6.868 5.277-18.839 4.317-27.629z" fill="#8379c1"/><path d="m415.372 332.763c-3.966-9.203-14.904-12.58-23.219-8.315-2.055 1.054-4.173 2.004-6.342 2.809 4.266 1.508 7.984 4.689 9.978 9.306 3.068 7.117.785 15.359-5.092 20.42-4.782 4.111-10.432 7.313-16.598 9.626 13.686-1.053 26.731-5.567 36.275-13.778 5.773-4.968 8.014-13.065 4.998-20.068z" fill="#8379c1"/><g><path d="m206.301 159.971c-.066-.174-.134-.346-.204-.518-3.577-8.697-11.96-14.312-21.362-14.312-.007 0-.016 0-.024 0-9.411.01-17.794 5.644-21.357 14.355-.058.142-.114.285-.169.428l-69.032 181.254c-3.721 9.772 1.183 20.709 10.954 24.431 9.773 3.72 20.71-1.183 24.431-10.954l12.549-32.948h84.78l12.414 32.894c2.861 7.582 10.065 12.253 17.716 12.253 2.221 0 4.481-.394 6.681-1.224 9.783-3.692 14.72-14.615 11.028-24.397zm-49.793 123.872 28.163-73.946 27.906 73.946z" fill="#978ecb"/><path d="m274.708 341.231-68.411-181.257c-.057-.18-.133-.35-.199-.521-3.578-8.699-11.965-14.313-21.365-14.313-.009 0-.009 0-.019 0-3.124.009-6.143.625-8.908 1.78 5.528 2.31 10.044 6.74 12.429 12.533.076.17.142.341.208.521l68.402 181.257c3.398 9.002-.502 18.97-8.775 23.381 2.726 1.458 5.784 2.243 8.927 2.243 2.225 0 4.477-.397 6.683-1.221 9.779-3.692 14.72-14.616 11.028-24.403z" fill="#8379c1"/></g></g></g></svg>