<?xml version="1.0" encoding="utf-8"?>
<!-- Generator: Adobe Illustrator 22.0.0, SVG Export Plug-In . SVG Version: 6.00 Build 0)  -->
<svg version="1.1" id="Capa_1" xmlns="http://www.w3.org/2000/svg" xmlns:xlink="http://www.w3.org/1999/xlink" x="0px" y="0px"
	 viewBox="0 0 234 224.8" style="enable-background:new 0 0 234 224.8;" xml:space="preserve">
<style type="text/css">
	.st0{fill:url(#SVGID_1_);}
	.st1{fill:url(#SVGID_2_);}
	.st2{fill:url(#SVGID_3_);}
	.st3{fill:none;stroke:url(#SVGID_4_);stroke-width:12;stroke-miterlimit:10;}
</style>
<g id="_12-idea">
	
		<linearGradient id="SVGID_1_" gradientUnits="userSpaceOnUse" x1="94.0227" y1="48.1697" x2="136.8223" y2="90.9693" gradientTransform="matrix(1 0 0 -1 0 160.16)">
		<stop  offset="1.500000e-02" style="stop-color:#BFE8E5"/>
		<stop  offset="1" style="stop-color:#DFF4F2"/>
	</linearGradient>
	<path class="st0" d="M143.9,87.2c0-15.8-14.2-28.6-31.8-28.6S80.3,71.4,80.3,87.2s14.2,28.6,31.8,28.6c2.9,0,5.8-0.4,8.7-1.1
		l13.6,6.4l-4.6-10.1C138.3,105.9,143.9,97.2,143.9,87.2z"/>
	
		<linearGradient id="SVGID_2_" gradientUnits="userSpaceOnUse" x1="100.6035" y1="66.3614" x2="123.6728" y2="89.4306" gradientTransform="matrix(1 0 0 -1 0 160.16)">
		<stop  offset="1.100000e-02" style="stop-color:#F8C73F"/>
		<stop  offset="1" style="stop-color:#FADA7F"/>
	</linearGradient>
	<path class="st1" d="M126,78.8c0-7.6-6.2-13.8-13.8-13.8s-13.8,6.2-13.8,13.8c0,5.7,3.3,10.3,6.2,14.8c1.2,1.8,2.1,6.4,2.1,6.4
		h10.6c0,0,0.9-4.6,2.1-6.3C122.5,89.1,126,84.5,126,78.8z"/>
	
		<linearGradient id="SVGID_3_" gradientUnits="userSpaceOnUse" x1="106.0654" y1="51.7196" x2="118.0783" y2="63.7324" gradientTransform="matrix(1 0 0 -1 0 160.16)">
		<stop  offset="1.100000e-02" style="stop-color:#606082"/>
		<stop  offset="1" style="stop-color:#83839E"/>
	</linearGradient>
	<path class="st2" d="M104.6,97.8h14.8l0,0v7.4c0,2.3-1.9,4.2-4.2,4.2h-6.4c-2.3,0-4.2-1.9-4.2-4.2V97.8L104.6,97.8z"/>
	<path d="M145.5,87.2c0-8.1-3.5-15.7-9.8-21.4c-6.3-5.7-14.7-8.8-23.6-8.8s-17.3,3.1-23.6,8.8c-6.3,5.7-9.8,13.3-9.8,21.4
		c-0.2,20.6,22.7,34.3,41.9,29.2l13.1,6.1c1.3,0.6,2.8-0.8,2.1-2.1l-4-8.9C140.4,106,145.5,96.9,145.5,87.2z M128.9,109.7
		c-0.7,0.4-1,1.3-0.6,2l2.8,6.2l-9.7-4.5c-0.3-0.2-0.7-0.2-1.1-0.1c-18.1,5.1-38.9-8.1-38.5-26c0-14.9,13.6-27,30.2-27
		s30.2,12.1,30.2,27C142.3,96.2,137.3,104.6,128.9,109.7z"/>
	<path d="M112.2,63.4c-8.5,0-15.4,6.9-15.4,15.4c0,5.9,3.2,10.7,6,14.9c0.6,0.9,0.9,1.3,1.3,2.6c-0.7,0.2-1.1,0.8-1.1,1.5v7.4
		c0,3.2,2.6,5.8,5.8,5.8h6.4c3.2,0,5.8-2.6,5.8-5.8v-7.4c0-0.7-0.4-1.3-1.1-1.5c0.5-1.4,0.8-1.8,1.5-2.8c3-4.4,6.1-8.9,6.1-14.8
		C127.6,70.3,120.7,63.4,112.2,63.4z M117.9,99.4v3.2h-11.7v-3.2H117.9z M115.3,107.9h-6.4c-1.3,0-2.3-0.9-2.6-2.1h11.6
		C117.6,107,116.5,107.9,115.3,107.9z M118.9,91.7c-1,1.4-1.5,2.3-2.2,4.5h-3V85.6h3.7c0.8,0,1.4-0.5,1.6-1.3l1.1-5.3
		c0.2-0.9-0.4-1.7-1.2-1.9c-0.9-0.2-1.7,0.4-1.9,1.2l-0.8,4h-7.9l-0.9-4.1c-0.2-0.9-1-1.4-1.9-1.2c-0.9,0.2-1.4,1-1.2,1.9l1.2,5.3
		c0.2,0.7,0.8,1.2,1.6,1.2h3.6v10.6h-3c-0.6-2.1-1.1-3-2-4.3c-2.7-4.1-5.5-8.3-5.5-13.2c0-6.7,5.5-12.2,12.2-12.2
		s12.2,5.5,12.2,12.2C124.4,83.6,121.6,87.7,118.9,91.7z"/>
	<path d="M135.4,85.8h-2.1c-0.9,0-1.6,0.7-1.6,1.6c0,0.9,0.7,1.6,1.6,1.6h2.1c0.9,0,1.6-0.7,1.6-1.6C137,86.5,136.3,85.8,135.4,85.8
		z"/>
	<path d="M131.5,80.5c0.2,0,0.4,0,0.6-0.1l1.9-0.8c0.8-0.4,1.2-1.3,0.8-2.1c-0.4-0.8-1.3-1.2-2.1-0.8l-1.9,0.8
		c-0.8,0.4-1.2,1.3-0.8,2.1C130.3,80.1,130.9,80.5,131.5,80.5z"/>
	<path d="M134.1,95.2l-1.9-0.8c-0.8-0.4-1.7,0-2.1,0.8c-0.4,0.8,0,1.7,0.8,2.1l1.9,0.8c0.8,0.4,1.7,0,2.1-0.8
		C135.3,96.5,134.9,95.6,134.1,95.2L134.1,95.2z"/>
	<path d="M92.5,87.4c0-0.9-0.7-1.6-1.6-1.6h-2.1c-0.9,0-1.6,0.7-1.6,1.6c0,0.9,0.7,1.6,1.6,1.6h2.1C91.7,89,92.5,88.3,92.5,87.4z"/>
	<path d="M93.3,77.4l-1.9-0.8c-0.8-0.4-1.7,0-2.1,0.8c-0.4,0.8,0,1.7,0.8,2.1l1.9,0.8c0.8,0.4,1.7,0,2.1-0.8
		C94.4,78.7,94.1,77.8,93.3,77.4z"/>
	<path d="M92,94.4l-1.9,0.8c-0.8,0.4-1.2,1.3-0.8,2.1c0.4,0.8,1.3,1.2,2.1,0.8l1.9-0.8c0.8-0.4,1.2-1.3,0.8-2.1
		C93.7,94.4,92.8,94,92,94.4L92,94.4z"/>
</g>
<linearGradient id="SVGID_4_" gradientUnits="userSpaceOnUse" x1="49.0321" y1="87.5843" x2="175.1098" y2="87.5843">
	<stop  offset="0" style="stop-color:#3DB9ED"/>
	<stop  offset="1" style="stop-color:#FF01FE;stop-opacity:0.3"/>
</linearGradient>
<path class="st3" d="M155.3,49.1c-15-18.5-34.4-18.5-43.3-18.5c-31.5,0-57,25.5-57,57c0,31.5,25.5,57,57,57c31.5,0,57-25.5,57-57
	c0-7-1.3-13.8-3.6-20"/>
<g>
	<g>
		<path d="M58.4,182.2c-2.5,0-4.3-0.7-5.6-2.1c-1.2-1.4-1.9-3.4-1.9-6.1c0-2.7,0.6-4.8,1.9-6.1c1.2-1.4,3.1-2.1,5.6-2.1
			c0.8,0,1.7,0.1,2.5,0.3s1.6,0.5,2.4,0.9v1.7c-0.7-0.4-1.5-0.7-2.3-0.9c-0.8-0.2-1.6-0.3-2.4-0.3c-1.3,0-2.4,0.2-3.3,0.7
			c-0.9,0.5-1.5,1.2-1.9,2.1c-0.4,1-0.6,2.2-0.6,3.7c0,1.5,0.2,2.8,0.6,3.7c0.4,1,1,1.7,1.9,2.1s2,0.7,3.3,0.7
			c0.8,0,1.6-0.1,2.4-0.3c0.8-0.2,1.5-0.5,2.3-0.9v1.7c-0.5,0.2-1,0.4-1.6,0.6c-0.5,0.2-1.1,0.3-1.6,0.4
			C59.5,182.2,59,182.2,58.4,182.2z"/>
		<path d="M66.5,182v-11c0.2-0.1,0.6-0.2,1.1-0.4c0.6-0.2,1.2-0.4,2-0.5c0.8-0.2,1.6-0.2,2.4-0.2c0.1,0,0.3,0,0.4,0
			c0.1,0,0.3,0.1,0.4,0.1v1.5c-0.4,0-0.8-0.1-1.2-0.1c-0.4,0-0.8,0-1.1,0.1c-0.4,0-0.7,0.1-1.1,0.2c-0.4,0.1-0.7,0.1-1.1,0.2V182
			H66.5z"/>
		<path d="M80.5,182.4c-1.1,0-2.1-0.2-3-0.7c-0.8-0.5-1.5-1.2-1.9-2.1c-0.4-0.9-0.7-2.1-0.7-3.5c0-2.1,0.5-3.6,1.4-4.6
			c0.9-1,2.2-1.5,3.9-1.5c1.3,0,2.3,0.3,3.1,0.9c0.8,0.6,1.3,1.4,1.7,2.3c0.3,1,0.5,2.1,0.5,3.3h-9.6l0.1-1.6h8.4l-0.7,0.2
			c0-1.2-0.3-2.1-0.9-2.7c-0.6-0.6-1.4-0.9-2.5-0.9c-0.8,0-1.4,0.1-2,0.4c-0.5,0.3-0.9,0.8-1.2,1.5c-0.3,0.7-0.4,1.7-0.4,3
			c0,1.5,0.3,2.6,1,3.3c0.7,0.8,1.6,1.1,2.9,1.1c0.6,0,1.1,0,1.6-0.1c0.5-0.1,1-0.2,1.4-0.4c0.4-0.2,0.8-0.3,1.1-0.5v1.8
			c-0.6,0.3-1.2,0.5-1.9,0.6C82.1,182.3,81.3,182.4,80.5,182.4z"/>
		<path d="M92.8,182.4c-0.5,0-1.1-0.1-1.6-0.2c-0.5-0.1-1-0.3-1.5-0.6s-0.8-0.6-1.1-1.1s-0.4-1.1-0.4-1.8c0-1,0.2-1.8,0.6-2.4
			c0.4-0.6,0.9-1,1.6-1.3c0.7-0.3,1.4-0.4,2.3-0.4c0.7,0,1.2,0,1.7,0.1s0.9,0.2,1.3,0.3c0.4,0.2,0.7,0.3,1,0.5l0.3,1.6
			c-0.4-0.3-0.9-0.5-1.6-0.7s-1.5-0.3-2.3-0.3c-1,0-1.8,0.2-2.3,0.6c-0.5,0.4-0.8,0.9-0.8,1.7c0,0.6,0.2,1.1,0.5,1.4
			c0.3,0.4,0.7,0.6,1.2,0.7c0.5,0.1,1,0.2,1.5,0.2c1,0,1.8-0.1,2.4-0.2c0.5-0.2,0.8-0.5,0.8-1v-5.5c0-0.9-0.3-1.6-0.8-2
			c-0.5-0.4-1.3-0.6-2.3-0.6c-0.6,0-1.3,0.1-2,0.3c-0.7,0.2-1.3,0.5-1.8,0.9v-1.7c0.5-0.3,1.2-0.6,2-0.7s1.6-0.3,2.4-0.3
			c0.5,0,1,0.1,1.5,0.2c0.4,0.1,0.8,0.3,1.2,0.5s0.7,0.5,0.9,0.8c0.2,0.3,0.4,0.7,0.6,1.1c0.1,0.4,0.2,0.9,0.2,1.4v5.8
			c0,0.8-0.3,1.5-0.8,1.9c-0.5,0.4-1.2,0.7-2,0.8S93.7,182.4,92.8,182.4z"/>
		<path d="M105.7,182.2c-0.8,0-1.6-0.3-2.1-0.8c-0.6-0.5-0.9-1.3-0.9-2.3v-7.5h-2.1v-1.6h2.1v-3.4h1.7v3.4h3.1v1.6h-3.1v6.9
			c0,0.7,0.1,1.2,0.3,1.5c0.2,0.3,0.6,0.5,1.3,0.5c0.3,0,0.6,0,0.8-0.1c0.3-0.1,0.5-0.1,0.7-0.2v1.6c-0.2,0.1-0.5,0.1-0.9,0.2
			C106.4,182.2,106.1,182.2,105.7,182.2z"/>
		<path d="M110.7,167.9V166h1.9v1.9H110.7z M110.8,182v-12h1.7v12H110.8z"/>
		<path d="M120.4,182l-5.1-12h1.8l4.4,10.5l-0.4,0.1l4.3-10.6h1.7l-5.1,12H120.4z"/>
		<path d="M130,167.9V166h1.9v1.9H130z M130.1,182v-12h1.7v12H130.1z"/>
		<path d="M140.8,182.4c-0.6,0-1.2-0.1-1.8-0.3s-1.2-0.5-1.8-0.9c-0.6-0.5-1-1.1-1.4-2c-0.4-0.9-0.5-2-0.5-3.3
			c0-1.9,0.5-3.3,1.4-4.4c0.9-1.1,2.3-1.6,4.1-1.6c0.4,0,0.8,0,1.2,0.1c0.5,0.1,1,0.2,1.4,0.4c0.5,0.1,0.8,0.3,1.2,0.5l-0.6,0.6V165
			h1.7v15c0,0.4-0.2,0.8-0.5,1.1c-0.3,0.3-0.7,0.6-1.2,0.7s-1,0.3-1.6,0.4C141.8,182.4,141.3,182.4,140.8,182.4z M140.8,180.8
			c0.8,0,1.6-0.1,2.2-0.3c0.6-0.2,0.9-0.4,0.9-0.7v-7.5c-0.5-0.3-1-0.5-1.6-0.6c-0.6-0.1-1.1-0.2-1.6-0.2c-0.9,0-1.6,0.2-2.1,0.6
			s-0.9,0.9-1.2,1.6s-0.4,1.4-0.4,2.3c0,0.9,0.1,1.7,0.3,2.4c0.2,0.7,0.6,1.3,1.1,1.8C139,180.6,139.7,180.8,140.8,180.8z"/>
		<path d="M153.6,182.4c-0.5,0-1.1-0.1-1.6-0.2c-0.5-0.1-1-0.3-1.5-0.6s-0.8-0.6-1.1-1.1c-0.3-0.5-0.4-1.1-0.4-1.8
			c0-1,0.2-1.8,0.6-2.4c0.4-0.6,0.9-1,1.6-1.3c0.7-0.3,1.4-0.4,2.3-0.4c0.7,0,1.2,0,1.7,0.1c0.5,0.1,0.9,0.2,1.3,0.3
			c0.4,0.2,0.7,0.3,1,0.5l0.3,1.6c-0.4-0.3-0.9-0.5-1.6-0.7c-0.7-0.2-1.5-0.3-2.3-0.3c-1,0-1.8,0.2-2.3,0.6
			c-0.5,0.4-0.8,0.9-0.8,1.7c0,0.6,0.2,1.1,0.5,1.4c0.3,0.4,0.7,0.6,1.2,0.7c0.5,0.1,1,0.2,1.5,0.2c1,0,1.8-0.1,2.4-0.2
			c0.5-0.2,0.8-0.5,0.8-1v-5.5c0-0.9-0.3-1.6-0.8-2c-0.5-0.4-1.3-0.6-2.3-0.6c-0.6,0-1.3,0.1-2,0.3c-0.7,0.2-1.3,0.5-1.8,0.9v-1.7
			c0.5-0.3,1.2-0.6,2-0.7s1.6-0.3,2.4-0.3c0.5,0,1,0.1,1.5,0.2c0.4,0.1,0.8,0.3,1.2,0.5c0.4,0.2,0.7,0.5,0.9,0.8
			c0.2,0.3,0.4,0.7,0.6,1.1c0.1,0.4,0.2,0.9,0.2,1.4v5.8c0,0.8-0.3,1.5-0.8,1.9c-0.5,0.4-1.2,0.7-2,0.8
			C155.4,182.3,154.5,182.4,153.6,182.4z"/>
		<path d="M167.7,182.4c-0.6,0-1.2-0.1-1.8-0.3c-0.6-0.2-1.2-0.5-1.8-0.9c-0.6-0.5-1-1.1-1.4-2c-0.4-0.9-0.5-2-0.5-3.3
			c0-1.9,0.5-3.3,1.4-4.4s2.3-1.6,4.1-1.6c0.4,0,0.8,0,1.2,0.1c0.5,0.1,1,0.2,1.4,0.4c0.5,0.1,0.8,0.3,1.2,0.5l-0.6,0.6V165h1.7v15
			c0,0.4-0.2,0.8-0.5,1.1c-0.3,0.3-0.7,0.6-1.2,0.7s-1,0.3-1.6,0.4C168.7,182.4,168.2,182.4,167.7,182.4z M167.7,180.8
			c0.8,0,1.6-0.1,2.2-0.3c0.6-0.2,0.9-0.4,0.9-0.7v-7.5c-0.5-0.3-1-0.5-1.6-0.6c-0.6-0.1-1.1-0.2-1.6-0.2c-0.9,0-1.6,0.2-2.1,0.6
			c-0.5,0.4-0.9,0.9-1.2,1.6s-0.4,1.4-0.4,2.3c0,0.9,0.1,1.7,0.3,2.4c0.2,0.7,0.6,1.3,1.1,1.8S166.7,180.8,167.7,180.8z"/>
		<path d="M98.2,207.4c-0.9,0-1.7-0.1-2.3-0.4s-1.1-0.6-1.5-1c-0.4-0.4-0.7-0.9-0.8-1.4c-0.2-0.5-0.3-1-0.3-1.5
			c0-0.6,0.1-1.2,0.4-1.6c0.2-0.4,0.5-0.8,0.8-1.1c0.3-0.3,0.7-0.5,1.2-0.7c-0.4-0.2-0.7-0.4-0.9-0.7c-0.3-0.2-0.5-0.5-0.7-0.9
			c-0.2-0.4-0.3-0.9-0.3-1.4c0-0.6,0.1-1.2,0.4-1.7c0.3-0.6,0.7-1,1.4-1.4c0.6-0.4,1.5-0.5,2.5-0.5c1.1,0,1.9,0.2,2.5,0.5
			c0.6,0.4,1.1,0.8,1.4,1.4c0.3,0.6,0.4,1.1,0.4,1.7c0,0.6-0.1,1-0.3,1.4c-0.2,0.4-0.4,0.7-0.6,0.9c-0.2,0.2-0.5,0.4-0.9,0.6
			c0.5,0.2,0.9,0.5,1.2,0.8c0.3,0.3,0.6,0.6,0.8,1c0.2,0.4,0.4,1,0.4,1.6c0,0.5-0.1,1-0.3,1.5c-0.2,0.5-0.4,1-0.8,1.4
			c-0.4,0.4-0.9,0.8-1.5,1C99.8,207.3,99.1,207.4,98.2,207.4z M98.2,206c0.8,0,1.4-0.1,1.8-0.3c0.4-0.2,0.8-0.5,1-0.9s0.3-0.7,0.4-1
			c0.1-0.3,0.1-0.6,0.1-0.7c0-0.6-0.1-1-0.4-1.4c-0.3-0.4-0.6-0.7-1.1-0.9c-0.5-0.2-1.1-0.3-1.8-0.3c-0.7,0-1.3,0.1-1.8,0.3
			s-0.9,0.5-1.1,0.9c-0.3,0.4-0.4,0.9-0.4,1.4c0,0.2,0,0.4,0.1,0.7c0.1,0.3,0.2,0.6,0.4,1c0.2,0.3,0.5,0.6,1,0.9
			C96.8,205.9,97.4,206,98.2,206z M98.2,199.1c0.6,0,1.1-0.1,1.5-0.3c0.4-0.2,0.7-0.5,1-0.8s0.3-0.8,0.3-1.3c0-0.6-0.1-1.1-0.4-1.4
			c-0.3-0.3-0.7-0.5-1.1-0.6c-0.4-0.1-0.9-0.2-1.3-0.2c-0.4,0-0.8,0.1-1.3,0.2c-0.4,0.1-0.8,0.3-1.1,0.6c-0.3,0.3-0.4,0.8-0.4,1.4
			c0,0.5,0.1,0.9,0.3,1.3s0.5,0.6,1,0.8C97.1,199,97.6,199.1,98.2,199.1z"/>
		<path d="M110.4,207.4c-0.9,0-1.7-0.1-2.4-0.3s-1.2-0.4-1.6-0.6V205c0.2,0.1,0.5,0.2,0.8,0.4c0.3,0.2,0.8,0.3,1.3,0.4
			c0.5,0.1,1.1,0.2,1.8,0.2c0.7,0,1.3-0.1,1.7-0.3c0.4-0.2,0.7-0.4,0.9-0.7c0.2-0.3,0.3-0.6,0.4-1c0.1-0.3,0.1-0.7,0.1-1
			c0-0.9-0.2-1.5-0.5-1.9c-0.3-0.4-0.7-0.7-1.2-0.8s-1-0.2-1.5-0.2c-0.7,0-1.4,0.1-1.8,0.2c-0.5,0.1-1,0.3-1.4,0.5l-0.9-1l0.7-6.5
			h7.2v1.5h-5.9l-0.4,4.5l-1.5,0.3c0.5-0.3,1.2-0.6,1.9-0.7c0.8-0.2,1.5-0.3,2.3-0.3c0.5,0,1,0.1,1.5,0.2c0.5,0.1,1,0.3,1.4,0.7
			c0.4,0.3,0.8,0.8,1.1,1.3c0.3,0.6,0.4,1.3,0.4,2.3s-0.1,1.7-0.4,2.3c-0.3,0.6-0.6,1-1.1,1.3c-0.4,0.3-0.9,0.5-1.4,0.7
			C111.4,207.4,110.9,207.4,110.4,207.4z"/>
		<path d="M120.1,200.8c-1,0-1.7-0.3-2.2-1c-0.5-0.7-0.8-1.6-0.8-2.9c0-1.3,0.3-2.3,0.8-2.9c0.5-0.6,1.2-1,2.2-1c1,0,1.7,0.3,2.2,1
			c0.5,0.6,0.7,1.6,0.7,2.9c0,1.3-0.2,2.2-0.7,2.9C121.8,200.4,121.1,200.8,120.1,200.8z M120.1,199.7c0.2,0,0.4-0.1,0.7-0.2
			c0.3-0.1,0.5-0.4,0.7-0.8c0.2-0.4,0.3-1,0.3-1.8c0-0.8-0.1-1.4-0.3-1.8s-0.4-0.7-0.7-0.8c-0.3-0.1-0.5-0.2-0.7-0.2
			c-0.2,0-0.4,0.1-0.7,0.2s-0.5,0.4-0.7,0.8s-0.3,1-0.3,1.8c0,0.8,0.1,1.4,0.3,1.8c0.2,0.4,0.4,0.7,0.7,0.8S119.9,199.7,120.1,199.7
			z M119.1,207.7l8.5-14.8h1.4l-8.5,14.8H119.1z M128.1,207.4c-1,0-1.7-0.3-2.2-1c-0.5-0.7-0.8-1.6-0.8-2.9c0-1.3,0.3-2.3,0.8-2.9
			c0.5-0.6,1.2-1,2.2-1c1,0,1.7,0.3,2.2,1c0.5,0.6,0.7,1.6,0.7,2.9c0,1.3-0.2,2.2-0.7,2.9C129.9,207,129.1,207.4,128.1,207.4z
			 M128.1,206.3c0.2,0,0.4-0.1,0.7-0.2c0.3-0.1,0.5-0.4,0.7-0.8s0.3-1,0.3-1.8c0-0.8-0.1-1.4-0.3-1.8c-0.2-0.4-0.4-0.7-0.7-0.8
			c-0.3-0.1-0.5-0.2-0.7-0.2c-0.2,0-0.4,0.1-0.7,0.2c-0.3,0.1-0.5,0.4-0.7,0.8c-0.2,0.4-0.3,1-0.3,1.8c0,0.8,0.1,1.4,0.3,1.8
			s0.4,0.7,0.7,0.8C127.7,206.2,128,206.3,128.1,206.3z"/>
	</g>
</g>
</svg>
