<svg id="Capa_1" enable-background="new 0 0 512 512" height="512" viewBox="0 0 512 512" width="512" xmlns="http://www.w3.org/2000/svg"><g><g><path d="m479.049 511.999h-446.103c-11.845 0-21.447-9.602-21.447-21.447v-469.103c0-11.845 9.602-21.447 21.447-21.447h446.103c11.845 0 21.447 9.602 21.447 21.447v469.103c0 11.844-9.602 21.447-21.447 21.447z" fill="#26a6fe"/><path d="m500.501 21.453v469.094c0 11.847-9.606 21.453-21.453 21.453h-27.144c11.847 0 21.443-9.606 21.443-21.453v-469.094c0-11.847-9.596-21.453-21.443-21.453h27.144c11.848 0 21.453 9.606 21.453 21.453z" fill="#0593fc"/><path d="m434.29 465.134h-356.585c-11.845 0-21.447-9.602-21.447-21.447v-375.374c0-11.845 9.602-21.447 21.447-21.447h356.585c11.845 0 21.447 9.602 21.447 21.447v375.374c0 11.845-9.602 21.447-21.447 21.447z" fill="#0563c1"/><path d="m455.737 68.313v375.374c0 11.851-9.607 21.448-21.448 21.448h-27.152c11.841 0 21.448-9.596 21.448-21.448v-375.374c0-11.851-9.607-21.448-21.448-21.448h27.152c11.841.001 21.448 9.597 21.448 21.448z" fill="#055fa8"/></g><g><g><g><g><path d="m344.651 377.473c-16.264 1.129-33.302-3.469-47.39-10.999-3.001-1.604-5.88-3.447-8.462-5.67-5.114-4.403-8.984-10.312-9.049-17.249-.054-5.78 2.403-11.399 6.686-15.281 8.124-7.363 20.204-6.087 28.507.316 7.757 5.982 15.946 8.939 25.731 8.188 5.934-.455 16.784-2.032 18.093-9.366.466-2.612-4.253-6.372-11.22-8.943-3.757-1.386-7.516-2.764-11.248-4.216-14.369-5.589-29.639-12.214-40.345-23.698-10.499-11.261-12.672-29.187-7.344-43.431 3.591-9.6 11.317-16.962 19.978-22.113 18.132-10.783 41.168-13.244 61.422-8.057 13.851 3.547 33.128 14.354 32.133 30.922-.613 10.202-8.406 19.17-19.097 18.522-5.718-.347-11.148-2.975-16.247-5.375-8.812-4.147-19.748-5.563-28.637-.306-1.87 1.106-6.378 3.472-6.733 5.937-.106.74.043 1.223.259 1.548 4.838 2.103 16.983 7.287 29.948 12.069 13.299 4.906 23.38 12.207 29.962 21.701 6.701 9.667 9.275 21.243 7.248 32.595-2.402 13.453-10.816 25.106-22.221 32.461-9.433 6.086-20.784 9.669-31.974 10.445z" fill="#26a6fe"/></g></g></g><g><g><g><path d="m331.431 266.659c-.103.733.041 1.219.258 1.539 4.834 2.107 16.981 7.292 29.943 12.074 13.304 4.906 23.384 12.209 29.964 21.701 6.703 9.668 9.275 21.246 7.251 32.598-2.407 13.448-10.814 25.109-22.217 32.463-9.441 6.084-20.792 9.657-31.978 10.442-1.322.093-2.634.145-3.956.155 5.856-1.808 11.486-4.379 16.567-7.664 11.734-7.561 20.379-19.542 22.847-33.372 2.18-12.198-.733-22.878-10.835-30.79-4.927-3.853-10.69-6.466-16.381-9.038-7.964-3.594-15.917-7.189-23.88-10.783-7.333-3.316-16.03-8.614-17.786-17.321-2.252-11.207 6.001-19.036 15.72-22.538 12.952-4.658 26.049-4.906 39.353-1.808 5.133 1.188 10.184 2.799 15.421 3.367 8.532.93 15.876-.992 19.583-6.879.682 2.231.981 4.586.837 7.075-.609 10.195-8.408 19.17-19.098 18.52-5.712-.351-11.145-2.975-16.247-5.371-8.811-4.152-19.749-5.567-28.631-.31-1.87 1.106-6.383 3.472-6.735 5.94z" fill="#0593fc"/></g></g></g><g><path d="m241.326 156.798c-14.86-14.469-34.391-22.437-54.994-22.437 0 0-55.713 0-55.855 0-5.615 0-10.681 2.125-14.631 6.074-3.982 3.996-6.027 8.934-6.027 14.583v200.598c0 11.409 9.249 20.658 20.658 20.658s20.658-9.249 20.658-20.658v-66.589c12.292-.065 27.143-.134 35.197-.134 20.603 0 40.134-7.969 54.994-22.437 15.078-14.681 23.381-34.153 23.381-54.829s-8.303-40.148-23.381-54.829zm-54.994 90.78c-8.021 0-22.674.068-34.924.132-.065-12.629-.134-27.885-.134-36.083 0-6.927-.04-22.771-.078-35.951h35.136c20.088 0 37.06 16.464 37.06 35.951s-16.972 35.951-37.06 35.951z" fill="#26a6fe"/></g><path d="m241.331 156.801c-14.863-14.471-34.395-22.445-55.001-22.445h-18.592c20.606 0 40.138 7.974 55.001 22.445 26.38 25.688 26.308 68.418 0 94.044-14.863 14.46-34.395 19.277-55.001 19.277-6.703 0-18.106.051-28.828.103-3.522.01-6.363 2.882-6.363 6.404v78.991c0 8.067-4.627 15.049-11.372 18.437 2.799 1.426 5.96 2.221 9.306 2.221 11.403 0 20.658-9.255 20.658-20.658v-66.59c12.291-.072 27.134-.134 35.19-.134 20.606 0 40.138-7.974 55.001-22.445 15.07-14.677 23.374-34.147 23.374-54.825s-8.304-40.147-23.373-54.825z" fill="#0593fc"/></g></g></svg>